<svg width="184" height="37" viewBox="0 0 184 37" fill="none" xmlns="http://www.w3.org/2000/svg">
<path d="M6.99231 20.863L10.4362 14.9041L10.5294 27.2329L9.95404 26.3425L6.99231 20.863Z" fill="white"/>
<path d="M22.0765 20.726L18.5638 15.1781V25.1781V26.8904L22.0765 20.726Z" fill="white"/>
<mask id="path-3-outside-1_649_2" maskUnits="userSpaceOnUse" x="0" y="5" width="29" height="32" fill="black">
<rect fill="white" y="5" width="29" height="32"/>
<path d="M6.5363 21.0002L1.54515 12.0837C0.662937 10.5069 0.86393 8.62671 2.05776 7.2926C3.25159 5.95849 5.0339 5.62513 6.59565 6.44211L14.5005 10.5764L22.4058 6.44211C23.9679 5.62513 25.7485 5.95884 26.9423 7.2926C28.1361 8.62636 28.3371 10.5069 27.4546 12.0837L22.4634 21.0002L27.4546 29.9168C28.3371 31.4932 28.1348 33.3738 26.9423 34.7075C26.1825 35.5562 25.1853 36.0004 24.1577 36C23.5488 35.9973 22.9489 35.8459 22.4058 35.558L14.5005 31.4237L6.59565 35.558C6.05205 35.8463 5.45151 35.9977 4.842 36C3.81478 36 2.81857 35.5562 2.05776 34.7075C0.86393 33.3738 0.662937 31.4932 1.54515 29.9164L6.5363 21.0002ZM13.9508 30.3373C13.9728 30.3408 13.9947 30.344 14.0183 30.3468L14.0726 30.3538L14.1245 30.3602C14.1594 30.3637 14.1944 30.3669 14.2297 30.3697L14.2665 30.3722C14.2945 30.3739 14.3221 30.3757 14.3501 30.3768H14.3855C14.4243 30.3768 14.4631 30.3789 14.5019 30.3789C14.5407 30.3789 14.5795 30.3789 14.6182 30.3768H14.652C14.68 30.3768 14.7079 30.3739 14.7356 30.3722L14.7727 30.3697L14.8779 30.3602L14.9295 30.3538L14.9841 30.3468L15.0499 30.3373L15.0776 30.3327C15.9071 30.1938 16.666 29.7613 17.2275 29.1076C17.246 29.0857 17.2649 29.0638 17.2831 29.0412C17.2857 29.0377 17.2885 29.0343 17.2915 29.031C17.4848 28.7919 17.6499 28.5293 17.7832 28.249C17.9019 27.9996 17.9941 27.7373 18.0581 27.4669L18.0631 27.4468C18.0631 27.4422 18.0655 27.438 18.0665 27.4334V27.4256L18.0756 27.3949C18.1033 27.2678 18.1248 27.1392 18.14 27.0097L18.1431 26.9886C18.1431 26.984 18.1431 26.9794 18.1451 26.9745C18.1609 26.8309 18.1691 26.6865 18.1697 26.542V15.4655C18.1692 15.3199 18.1608 15.1745 18.1444 15.0299C18.1424 15.0122 18.1397 14.9946 18.137 14.9784C18.1343 14.9622 18.1316 14.9449 18.1292 14.9272C18.113 14.8066 18.0955 14.6979 18.0716 14.596C18.0668 14.5755 18.0618 14.5554 18.0567 14.5353L18.0496 14.5071C18.0206 14.3893 17.9866 14.2732 17.9485 14.1632L17.9421 14.1441C17.9384 14.1339 17.935 14.1233 17.9309 14.112C17.8843 13.9822 17.8309 13.8552 17.7711 13.7314C17.7374 13.6587 17.6989 13.5871 17.6598 13.5173L17.6541 13.5074C17.6399 13.482 17.6251 13.457 17.6102 13.4323C17.2808 12.8799 16.8223 12.4243 16.2781 12.1085C15.7338 11.7926 15.1216 11.6269 14.4992 11.6269C13.8768 11.6269 13.2646 11.7926 12.7203 12.1085C12.1761 12.4243 11.7176 12.8799 11.3882 13.4323C11.3733 13.457 11.3585 13.4817 11.3443 13.5067C11.3426 13.5102 11.3406 13.5138 11.3386 13.5173C11.2995 13.5878 11.2624 13.6584 11.2273 13.731C11.1686 13.8547 11.1162 13.9815 11.0705 14.111C11.0668 14.1215 11.0631 14.1325 11.059 14.1434L11.0533 14.1603C11.0148 14.2715 10.9804 14.3875 10.9521 14.506L10.9454 14.5329C10.9403 14.5533 10.9349 14.5734 10.9305 14.5935C10.9076 14.6962 10.8887 14.8052 10.8725 14.9262C10.8702 14.9431 10.8675 14.9615 10.8648 14.9766C10.8621 14.9918 10.8594 15.0119 10.8573 15.0274C10.8412 15.1723 10.8327 15.3179 10.8321 15.4638V26.5402C10.8326 26.6848 10.8409 26.8291 10.857 26.9727C10.857 26.9773 10.857 26.9819 10.859 26.9868L10.8621 27.0083C10.8774 27.1378 10.899 27.2664 10.9268 27.3935L10.9356 27.4242V27.432C10.9356 27.4366 10.9379 27.4415 10.9393 27.4461L10.9444 27.4655C11.008 27.736 11.1001 27.9982 11.2189 28.2475C11.3522 28.5276 11.5172 28.7899 11.7102 29.0289L11.7193 29.0402L11.7719 29.1054C12.3335 29.7603 13.0931 30.1934 13.9235 30.3323L13.9508 30.3373ZM18.71 26.5416C18.71 26.5586 18.71 26.5769 18.71 26.5931L20.4909 23.4106L21.8399 21.0002L18.71 15.407C18.71 15.426 18.71 15.4451 18.71 15.4638V26.5416ZM10.2911 26.5416V15.4652C10.2911 15.4465 10.2911 15.4274 10.2911 15.4087L7.1612 21.0016L10.2915 26.5928C10.2911 26.5758 10.2911 26.5586 10.2911 26.5416ZM6.35419 6.9469C5.65914 6.58356 4.91384 6.47527 4.19855 6.63436C3.52968 6.79128 2.92144 7.15512 2.45295 7.67857C1.98447 8.20201 1.67744 8.86081 1.5718 9.56927C1.46725 10.3263 1.61969 11.097 2.01223 11.7987L6.84892 20.4411L7.91493 18.5363L10.7305 13.5053L10.739 13.4809L10.7481 13.4697C10.7916 13.3804 10.8381 13.2933 10.887 13.2076C10.9096 13.1677 10.9329 13.1285 10.9568 13.0894C10.9666 13.0739 10.9767 13.0583 10.9865 13.0425L11.0175 12.9938C11.3433 12.49 11.7649 12.0619 12.2559 11.7362C12.8487 11.3433 13.5266 11.1128 14.227 11.066L6.35419 6.9469ZM26.9882 11.7987C27.3807 11.097 27.5332 10.3263 27.4286 9.56927C27.3231 8.86096 27.0161 8.20228 26.5478 7.67895C26.0794 7.15562 25.4713 6.79188 24.8025 6.63507C24.5898 6.58798 24.3728 6.56433 24.1554 6.56452C23.6313 6.56784 23.1152 6.69927 22.6482 6.94831L14.7737 11.0646C15.4455 11.1085 16.0972 11.3214 16.6734 11.6853C17.2497 12.0492 17.7334 12.5533 18.0834 13.1546C18.0945 13.1737 18.1056 13.1927 18.1171 13.2118C18.1228 13.2217 18.1286 13.2315 18.134 13.2414C18.1812 13.3254 18.2261 13.411 18.2689 13.4982L22.1522 20.4415L26.9882 11.7987ZM22.6469 35.0532C23.3419 35.4169 24.0879 35.5255 24.8025 35.3661C25.4715 35.2093 26.0799 34.8455 26.5484 34.322C27.0169 33.7984 27.3239 33.1394 27.4293 32.4308C27.5338 31.6738 27.3814 30.9045 26.9882 30.2018L22.1515 21.5593L18.2817 28.4733C18.1349 28.7862 17.9532 29.0799 17.7404 29.3481C17.7225 29.3711 17.704 29.3936 17.6854 29.4159C17.6837 29.4183 17.6817 29.4204 17.68 29.4226C17.0301 30.2139 16.1306 30.7354 15.1447 30.8925L15.1265 30.895C15.0762 30.9031 15.0253 30.9098 14.9747 30.9158L14.9271 30.9214C14.9086 30.9235 14.8897 30.9249 14.8708 30.9267L14.7983 30.9327L14.773 30.9348L22.6469 35.0532ZM1.5718 32.4308C1.67738 33.1394 1.98438 33.7982 2.45287 34.3218C2.92136 34.8453 3.52963 35.2092 4.19855 35.3661C4.91384 35.5248 5.65914 35.4169 6.35419 35.0532L14.2277 30.9355H14.2102C14.1785 30.9331 14.1464 30.9306 14.1147 30.9274L14.0898 30.9249C14.0055 30.9165 13.9212 30.9052 13.8399 30.8918L13.8281 30.8897C13.791 30.8833 13.7536 30.8766 13.7168 30.8692L13.6979 30.8653C13.6608 30.8579 13.6237 30.8498 13.587 30.8413L13.5762 30.8389C13.4929 30.8191 13.4106 30.7972 13.329 30.7725L13.3209 30.7697C13.2841 30.7584 13.248 30.7468 13.2119 30.7345L13.1917 30.7274C13.158 30.7158 13.1243 30.7034 13.0905 30.6921L13.0754 30.6865C12.9976 30.6571 12.9207 30.6253 12.8447 30.5912L12.8224 30.581C12.7921 30.5672 12.7621 30.5531 12.7321 30.5383L12.7068 30.526C12.673 30.5094 12.6393 30.4907 12.6056 30.4748L12.5972 30.4706C12.5591 30.4501 12.5209 30.4293 12.4835 30.4078H12.4815C12.4454 30.3873 12.4097 30.3658 12.3742 30.344L12.3628 30.3369C11.6692 29.9071 11.1071 29.2793 10.7423 28.5273L10.739 28.523L10.7349 28.5121L10.7187 28.4768L6.84892 21.5629L2.01223 30.2053C1.61969 30.9045 1.46725 31.6738 1.5718 32.4308Z"/>
</mask>
<path d="M6.5363 21.0002L1.54515 12.0837C0.662937 10.5069 0.86393 8.62671 2.05776 7.2926C3.25159 5.95849 5.0339 5.62513 6.59565 6.44211L14.5005 10.5764L22.4058 6.44211C23.9679 5.62513 25.7485 5.95884 26.9423 7.2926C28.1361 8.62636 28.3371 10.5069 27.4546 12.0837L22.4634 21.0002L27.4546 29.9168C28.3371 31.4932 28.1348 33.3738 26.9423 34.7075C26.1825 35.5562 25.1853 36.0004 24.1577 36C23.5488 35.9973 22.9489 35.8459 22.4058 35.558L14.5005 31.4237L6.59565 35.558C6.05205 35.8463 5.45151 35.9977 4.842 36C3.81478 36 2.81857 35.5562 2.05776 34.7075C0.86393 33.3738 0.662937 31.4932 1.54515 29.9164L6.5363 21.0002ZM13.9508 30.3373C13.9728 30.3408 13.9947 30.344 14.0183 30.3468L14.0726 30.3538L14.1245 30.3602C14.1594 30.3637 14.1944 30.3669 14.2297 30.3697L14.2665 30.3722C14.2945 30.3739 14.3221 30.3757 14.3501 30.3768H14.3855C14.4243 30.3768 14.4631 30.3789 14.5019 30.3789C14.5407 30.3789 14.5795 30.3789 14.6182 30.3768H14.652C14.68 30.3768 14.7079 30.3739 14.7356 30.3722L14.7727 30.3697L14.8779 30.3602L14.9295 30.3538L14.9841 30.3468L15.0499 30.3373L15.0776 30.3327C15.9071 30.1938 16.666 29.7613 17.2275 29.1076C17.246 29.0857 17.2649 29.0638 17.2831 29.0412C17.2857 29.0377 17.2885 29.0343 17.2915 29.031C17.4848 28.7919 17.6499 28.5293 17.7832 28.249C17.9019 27.9996 17.9941 27.7373 18.0581 27.4669L18.0631 27.4468C18.0631 27.4422 18.0655 27.438 18.0665 27.4334V27.4256L18.0756 27.3949C18.1033 27.2678 18.1248 27.1392 18.14 27.0097L18.1431 26.9886C18.1431 26.984 18.1431 26.9794 18.1451 26.9745C18.1609 26.8309 18.1691 26.6865 18.1697 26.542V15.4655C18.1692 15.3199 18.1608 15.1745 18.1444 15.0299C18.1424 15.0122 18.1397 14.9946 18.137 14.9784C18.1343 14.9622 18.1316 14.9449 18.1292 14.9272C18.113 14.8066 18.0955 14.6979 18.0716 14.596C18.0668 14.5755 18.0618 14.5554 18.0567 14.5353L18.0496 14.5071C18.0206 14.3893 17.9866 14.2732 17.9485 14.1632L17.9421 14.1441C17.9384 14.1339 17.935 14.1233 17.9309 14.112C17.8843 13.9822 17.8309 13.8552 17.7711 13.7314C17.7374 13.6587 17.6989 13.5871 17.6598 13.5173L17.6541 13.5074C17.6399 13.482 17.6251 13.457 17.6102 13.4323C17.2808 12.8799 16.8223 12.4243 16.2781 12.1085C15.7338 11.7926 15.1216 11.6269 14.4992 11.6269C13.8768 11.6269 13.2646 11.7926 12.7203 12.1085C12.1761 12.4243 11.7176 12.8799 11.3882 13.4323C11.3733 13.457 11.3585 13.4817 11.3443 13.5067C11.3426 13.5102 11.3406 13.5138 11.3386 13.5173C11.2995 13.5878 11.2624 13.6584 11.2273 13.731C11.1686 13.8547 11.1162 13.9815 11.0705 14.111C11.0668 14.1215 11.0631 14.1325 11.059 14.1434L11.0533 14.1603C11.0148 14.2715 10.9804 14.3875 10.9521 14.506L10.9454 14.5329C10.9403 14.5533 10.9349 14.5734 10.9305 14.5935C10.9076 14.6962 10.8887 14.8052 10.8725 14.9262C10.8702 14.9431 10.8675 14.9615 10.8648 14.9766C10.8621 14.9918 10.8594 15.0119 10.8573 15.0274C10.8412 15.1723 10.8327 15.3179 10.8321 15.4638V26.5402C10.8326 26.6848 10.8409 26.8291 10.857 26.9727C10.857 26.9773 10.857 26.9819 10.859 26.9868L10.8621 27.0083C10.8774 27.1378 10.899 27.2664 10.9268 27.3935L10.9356 27.4242V27.432C10.9356 27.4366 10.9379 27.4415 10.9393 27.4461L10.9444 27.4655C11.008 27.736 11.1001 27.9982 11.2189 28.2475C11.3522 28.5276 11.5172 28.7899 11.7102 29.0289L11.7193 29.0402L11.7719 29.1054C12.3335 29.7603 13.0931 30.1934 13.9235 30.3323L13.9508 30.3373ZM18.71 26.5416C18.71 26.5586 18.71 26.5769 18.71 26.5931L20.4909 23.4106L21.8399 21.0002L18.71 15.407C18.71 15.426 18.71 15.4451 18.71 15.4638V26.5416ZM10.2911 26.5416V15.4652C10.2911 15.4465 10.2911 15.4274 10.2911 15.4087L7.1612 21.0016L10.2915 26.5928C10.2911 26.5758 10.2911 26.5586 10.2911 26.5416ZM6.35419 6.9469C5.65914 6.58356 4.91384 6.47527 4.19855 6.63436C3.52968 6.79128 2.92144 7.15512 2.45295 7.67857C1.98447 8.20201 1.67744 8.86081 1.5718 9.56927C1.46725 10.3263 1.61969 11.097 2.01223 11.7987L6.84892 20.4411L7.91493 18.5363L10.7305 13.5053L10.739 13.4809L10.7481 13.4697C10.7916 13.3804 10.8381 13.2933 10.887 13.2076C10.9096 13.1677 10.9329 13.1285 10.9568 13.0894C10.9666 13.0739 10.9767 13.0583 10.9865 13.0425L11.0175 12.9938C11.3433 12.49 11.7649 12.0619 12.2559 11.7362C12.8487 11.3433 13.5266 11.1128 14.227 11.066L6.35419 6.9469ZM26.9882 11.7987C27.3807 11.097 27.5332 10.3263 27.4286 9.56927C27.3231 8.86096 27.0161 8.20228 26.5478 7.67895C26.0794 7.15562 25.4713 6.79188 24.8025 6.63507C24.5898 6.58798 24.3728 6.56433 24.1554 6.56452C23.6313 6.56784 23.1152 6.69927 22.6482 6.94831L14.7737 11.0646C15.4455 11.1085 16.0972 11.3214 16.6734 11.6853C17.2497 12.0492 17.7334 12.5533 18.0834 13.1546C18.0945 13.1737 18.1056 13.1927 18.1171 13.2118C18.1228 13.2217 18.1286 13.2315 18.134 13.2414C18.1812 13.3254 18.2261 13.411 18.2689 13.4982L22.1522 20.4415L26.9882 11.7987ZM22.6469 35.0532C23.3419 35.4169 24.0879 35.5255 24.8025 35.3661C25.4715 35.2093 26.0799 34.8455 26.5484 34.322C27.0169 33.7984 27.3239 33.1394 27.4293 32.4308C27.5338 31.6738 27.3814 30.9045 26.9882 30.2018L22.1515 21.5593L18.2817 28.4733C18.1349 28.7862 17.9532 29.0799 17.7404 29.3481C17.7225 29.3711 17.704 29.3936 17.6854 29.4159C17.6837 29.4183 17.6817 29.4204 17.68 29.4226C17.0301 30.2139 16.1306 30.7354 15.1447 30.8925L15.1265 30.895C15.0762 30.9031 15.0253 30.9098 14.9747 30.9158L14.9271 30.9214C14.9086 30.9235 14.8897 30.9249 14.8708 30.9267L14.7983 30.9327L14.773 30.9348L22.6469 35.0532ZM1.5718 32.4308C1.67738 33.1394 1.98438 33.7982 2.45287 34.3218C2.92136 34.8453 3.52963 35.2092 4.19855 35.3661C4.91384 35.5248 5.65914 35.4169 6.35419 35.0532L14.2277 30.9355H14.2102C14.1785 30.9331 14.1464 30.9306 14.1147 30.9274L14.0898 30.9249C14.0055 30.9165 13.9212 30.9052 13.8399 30.8918L13.8281 30.8897C13.791 30.8833 13.7536 30.8766 13.7168 30.8692L13.6979 30.8653C13.6608 30.8579 13.6237 30.8498 13.587 30.8413L13.5762 30.8389C13.4929 30.8191 13.4106 30.7972 13.329 30.7725L13.3209 30.7697C13.2841 30.7584 13.248 30.7468 13.2119 30.7345L13.1917 30.7274C13.158 30.7158 13.1243 30.7034 13.0905 30.6921L13.0754 30.6865C12.9976 30.6571 12.9207 30.6253 12.8447 30.5912L12.8224 30.581C12.7921 30.5672 12.7621 30.5531 12.7321 30.5383L12.7068 30.526C12.673 30.5094 12.6393 30.4907 12.6056 30.4748L12.5972 30.4706C12.5591 30.4501 12.5209 30.4293 12.4835 30.4078H12.4815C12.4454 30.3873 12.4097 30.3658 12.3742 30.344L12.3628 30.3369C11.6692 29.9071 11.1071 29.2793 10.7423 28.5273L10.739 28.523L10.7349 28.5121L10.7187 28.4768L6.84892 21.5629L2.01223 30.2053C1.61969 30.9045 1.46725 31.6738 1.5718 32.4308Z" fill="white"/>
<path d="M6.5363 21.0002L1.54515 12.0837C0.662937 10.5069 0.86393 8.62671 2.05776 7.2926C3.25159 5.95849 5.0339 5.62513 6.59565 6.44211L14.5005 10.5764L22.4058 6.44211C23.9679 5.62513 25.7485 5.95884 26.9423 7.2926C28.1361 8.62636 28.3371 10.5069 27.4546 12.0837L22.4634 21.0002L27.4546 29.9168C28.3371 31.4932 28.1348 33.3738 26.9423 34.7075C26.1825 35.5562 25.1853 36.0004 24.1577 36C23.5488 35.9973 22.9489 35.8459 22.4058 35.558L14.5005 31.4237L6.59565 35.558C6.05205 35.8463 5.45151 35.9977 4.842 36C3.81478 36 2.81857 35.5562 2.05776 34.7075C0.86393 33.3738 0.662937 31.4932 1.54515 29.9164L6.5363 21.0002ZM13.9508 30.3373C13.9728 30.3408 13.9947 30.344 14.0183 30.3468L14.0726 30.3538L14.1245 30.3602C14.1594 30.3637 14.1944 30.3669 14.2297 30.3697L14.2665 30.3722C14.2945 30.3739 14.3221 30.3757 14.3501 30.3768H14.3855C14.4243 30.3768 14.4631 30.3789 14.5019 30.3789C14.5407 30.3789 14.5795 30.3789 14.6182 30.3768H14.652C14.68 30.3768 14.7079 30.3739 14.7356 30.3722L14.7727 30.3697L14.8779 30.3602L14.9295 30.3538L14.9841 30.3468L15.0499 30.3373L15.0776 30.3327C15.9071 30.1938 16.666 29.7613 17.2275 29.1076C17.246 29.0857 17.2649 29.0638 17.2831 29.0412C17.2857 29.0377 17.2885 29.0343 17.2915 29.031C17.4848 28.7919 17.6499 28.5293 17.7832 28.249C17.9019 27.9996 17.9941 27.7373 18.0581 27.4669L18.0631 27.4468C18.0631 27.4422 18.0655 27.438 18.0665 27.4334V27.4256L18.0756 27.3949C18.1033 27.2678 18.1248 27.1392 18.14 27.0097L18.1431 26.9886C18.1431 26.984 18.1431 26.9794 18.1451 26.9745C18.1609 26.8309 18.1691 26.6865 18.1697 26.542V15.4655C18.1692 15.3199 18.1608 15.1745 18.1444 15.0299C18.1424 15.0122 18.1397 14.9946 18.137 14.9784C18.1343 14.9622 18.1316 14.9449 18.1292 14.9272C18.113 14.8066 18.0955 14.6979 18.0716 14.596C18.0668 14.5755 18.0618 14.5554 18.0567 14.5353L18.0496 14.5071C18.0206 14.3893 17.9866 14.2732 17.9485 14.1632L17.9421 14.1441C17.9384 14.1339 17.935 14.1233 17.9309 14.112C17.8843 13.9822 17.8309 13.8552 17.7711 13.7314C17.7374 13.6587 17.6989 13.5871 17.6598 13.5173L17.6541 13.5074C17.6399 13.482 17.6251 13.457 17.6102 13.4323C17.2808 12.8799 16.8223 12.4243 16.2781 12.1085C15.7338 11.7926 15.1216 11.6269 14.4992 11.6269C13.8768 11.6269 13.2646 11.7926 12.7203 12.1085C12.1761 12.4243 11.7176 12.8799 11.3882 13.4323C11.3733 13.457 11.3585 13.4817 11.3443 13.5067C11.3426 13.5102 11.3406 13.5138 11.3386 13.5173C11.2995 13.5878 11.2624 13.6584 11.2273 13.731C11.1686 13.8547 11.1162 13.9815 11.0705 14.111C11.0668 14.1215 11.0631 14.1325 11.059 14.1434L11.0533 14.1603C11.0148 14.2715 10.9804 14.3875 10.9521 14.506L10.9454 14.5329C10.9403 14.5533 10.9349 14.5734 10.9305 14.5935C10.9076 14.6962 10.8887 14.8052 10.8725 14.9262C10.8702 14.9431 10.8675 14.9615 10.8648 14.9766C10.8621 14.9918 10.8594 15.0119 10.8573 15.0274C10.8412 15.1723 10.8327 15.3179 10.8321 15.4638V26.5402C10.8326 26.6848 10.8409 26.8291 10.857 26.9727C10.857 26.9773 10.857 26.9819 10.859 26.9868L10.8621 27.0083C10.8774 27.1378 10.899 27.2664 10.9268 27.3935L10.9356 27.4242V27.432C10.9356 27.4366 10.9379 27.4415 10.9393 27.4461L10.9444 27.4655C11.008 27.736 11.1001 27.9982 11.2189 28.2475C11.3522 28.5276 11.5172 28.7899 11.7102 29.0289L11.7193 29.0402L11.7719 29.1054C12.3335 29.7603 13.0931 30.1934 13.9235 30.3323L13.9508 30.3373ZM18.71 26.5416C18.71 26.5586 18.71 26.5769 18.71 26.5931L20.4909 23.4106L21.8399 21.0002L18.71 15.407C18.71 15.426 18.71 15.4451 18.71 15.4638V26.5416ZM10.2911 26.5416V15.4652C10.2911 15.4465 10.2911 15.4274 10.2911 15.4087L7.1612 21.0016L10.2915 26.5928C10.2911 26.5758 10.2911 26.5586 10.2911 26.5416ZM6.35419 6.9469C5.65914 6.58356 4.91384 6.47527 4.19855 6.63436C3.52968 6.79128 2.92144 7.15512 2.45295 7.67857C1.98447 8.20201 1.67744 8.86081 1.5718 9.56927C1.46725 10.3263 1.61969 11.097 2.01223 11.7987L6.84892 20.4411L7.91493 18.5363L10.7305 13.5053L10.739 13.4809L10.7481 13.4697C10.7916 13.3804 10.8381 13.2933 10.887 13.2076C10.9096 13.1677 10.9329 13.1285 10.9568 13.0894C10.9666 13.0739 10.9767 13.0583 10.9865 13.0425L11.0175 12.9938C11.3433 12.49 11.7649 12.0619 12.2559 11.7362C12.8487 11.3433 13.5266 11.1128 14.227 11.066L6.35419 6.9469ZM26.9882 11.7987C27.3807 11.097 27.5332 10.3263 27.4286 9.56927C27.3231 8.86096 27.0161 8.20228 26.5478 7.67895C26.0794 7.15562 25.4713 6.79188 24.8025 6.63507C24.5898 6.58798 24.3728 6.56433 24.1554 6.56452C23.6313 6.56784 23.1152 6.69927 22.6482 6.94831L14.7737 11.0646C15.4455 11.1085 16.0972 11.3214 16.6734 11.6853C17.2497 12.0492 17.7334 12.5533 18.0834 13.1546C18.0945 13.1737 18.1056 13.1927 18.1171 13.2118C18.1228 13.2217 18.1286 13.2315 18.134 13.2414C18.1812 13.3254 18.2261 13.411 18.2689 13.4982L22.1522 20.4415L26.9882 11.7987ZM22.6469 35.0532C23.3419 35.4169 24.0879 35.5255 24.8025 35.3661C25.4715 35.2093 26.0799 34.8455 26.5484 34.322C27.0169 33.7984 27.3239 33.1394 27.4293 32.4308C27.5338 31.6738 27.3814 30.9045 26.9882 30.2018L22.1515 21.5593L18.2817 28.4733C18.1349 28.7862 17.9532 29.0799 17.7404 29.3481C17.7225 29.3711 17.704 29.3936 17.6854 29.4159C17.6837 29.4183 17.6817 29.4204 17.68 29.4226C17.0301 30.2139 16.1306 30.7354 15.1447 30.8925L15.1265 30.895C15.0762 30.9031 15.0253 30.9098 14.9747 30.9158L14.9271 30.9214C14.9086 30.9235 14.8897 30.9249 14.8708 30.9267L14.7983 30.9327L14.773 30.9348L22.6469 35.0532ZM1.5718 32.4308C1.67738 33.1394 1.98438 33.7982 2.45287 34.3218C2.92136 34.8453 3.52963 35.2092 4.19855 35.3661C4.91384 35.5248 5.65914 35.4169 6.35419 35.0532L14.2277 30.9355H14.2102C14.1785 30.9331 14.1464 30.9306 14.1147 30.9274L14.0898 30.9249C14.0055 30.9165 13.9212 30.9052 13.8399 30.8918L13.8281 30.8897C13.791 30.8833 13.7536 30.8766 13.7168 30.8692L13.6979 30.8653C13.6608 30.8579 13.6237 30.8498 13.587 30.8413L13.5762 30.8389C13.4929 30.8191 13.4106 30.7972 13.329 30.7725L13.3209 30.7697C13.2841 30.7584 13.248 30.7468 13.2119 30.7345L13.1917 30.7274C13.158 30.7158 13.1243 30.7034 13.0905 30.6921L13.0754 30.6865C12.9976 30.6571 12.9207 30.6253 12.8447 30.5912L12.8224 30.581C12.7921 30.5672 12.7621 30.5531 12.7321 30.5383L12.7068 30.526C12.673 30.5094 12.6393 30.4907 12.6056 30.4748L12.5972 30.4706C12.5591 30.4501 12.5209 30.4293 12.4835 30.4078H12.4815C12.4454 30.3873 12.4097 30.3658 12.3742 30.344L12.3628 30.3369C11.6692 29.9071 11.1071 29.2793 10.7423 28.5273L10.739 28.523L10.7349 28.5121L10.7187 28.4768L6.84892 21.5629L2.01223 30.2053C1.61969 30.9045 1.46725 31.6738 1.5718 32.4308Z" stroke="white" stroke-width="0.4" stroke-miterlimit="1.41421" stroke-linecap="round" mask="url(#path-3-outside-1_649_2)"/>
<path d="M56.564 27.0713C56.5396 27.1689 56.3564 27.4131 56.0146 27.8037C55.7705 28.0967 55.445 28.3571 55.0381 28.585C54.6312 28.8047 54.0859 28.9756 53.4023 29.0977C52.7269 29.2279 51.8358 29.293 50.729 29.293C49.256 29.293 47.9987 29.2157 46.957 29.061C45.9154 28.9146 45.0649 28.6867 44.4058 28.3774C43.7466 28.0601 43.2624 27.6572 42.9531 27.1689C42.652 26.6807 42.5015 26.0988 42.5015 25.4233C42.5015 24.7153 42.5828 24.1172 42.7456 23.6289C42.9165 23.1325 43.1606 22.7174 43.478 22.3838C43.8035 22.0501 44.1942 21.7897 44.6499 21.6025C45.1056 21.4154 45.6224 21.2729 46.2002 21.1753C46.7861 21.0776 47.425 21.0166 48.1167 20.9922C48.8084 20.9678 49.5449 20.9556 50.3262 20.9556C51.4411 20.9556 52.3729 21.0044 53.1216 21.1021C53.8703 21.1916 54.4806 21.3096 54.9526 21.4561C55.4328 21.5944 55.7949 21.745 56.0391 21.9077C56.2832 22.0705 56.4582 22.221 56.564 22.3594C56.564 21.4479 56.5233 20.6707 56.4419 20.0278C56.3687 19.3849 56.2425 18.8478 56.0635 18.4165C55.8926 17.9852 55.6688 17.6434 55.3921 17.3911C55.1154 17.1307 54.7736 16.9354 54.3667 16.8052C53.9679 16.675 53.5 16.5936 52.9629 16.561C52.4258 16.5203 51.8114 16.5 51.1196 16.5C50.0454 16.5 49.1543 16.5285 48.4463 16.5854C47.7383 16.6343 47.1768 16.736 46.7617 16.8906C46.3467 17.0452 46.0537 17.2609 45.8828 17.5376C45.7119 17.8062 45.6265 18.1602 45.6265 18.5996H43.2827C43.2827 17.859 43.4129 17.2324 43.6733 16.7197C43.9419 16.207 44.3813 15.792 44.9917 15.4746C45.6102 15.1491 46.4199 14.9131 47.4209 14.7666C48.4219 14.6201 49.6548 14.5469 51.1196 14.5469C52.5519 14.5469 53.7645 14.6649 54.7573 14.9009C55.7502 15.1369 56.5518 15.5519 57.1621 16.146C57.7806 16.7401 58.2241 17.5417 58.4927 18.5508C58.7694 19.5518 58.9077 20.8213 58.9077 22.3594V29H56.564V27.0713ZM51.1196 27.4375C52.1532 27.4375 53.0158 27.3887 53.7075 27.291C54.4074 27.1934 54.9689 27.0469 55.3921 26.8516C55.8153 26.6562 56.1164 26.4121 56.2954 26.1191C56.4744 25.8262 56.564 25.4844 56.564 25.0938C56.564 24.7031 56.4582 24.3735 56.2466 24.105C56.0431 23.8283 55.6973 23.6045 55.209 23.4336C54.7288 23.2627 54.09 23.1406 53.2925 23.0674C52.495 22.986 51.5103 22.9453 50.3384 22.9453C49.1665 22.9453 48.2184 22.9657 47.4941 23.0063C46.778 23.047 46.2246 23.1406 45.834 23.2871C45.4434 23.4336 45.1789 23.6493 45.0405 23.9341C44.9103 24.2189 44.8452 24.6055 44.8452 25.0938C44.8452 25.582 44.9144 25.9808 45.0527 26.29C45.1992 26.5911 45.4922 26.8271 45.9316 26.998C46.3711 27.1689 47.0018 27.2869 47.8237 27.3521C48.6538 27.409 49.7524 27.4375 51.1196 27.4375ZM62.8262 14.9375H65.1699V29H62.8262V14.9375ZM65.1699 12.5938H62.8262V10.25H65.1699V12.5938ZM81.1855 19.5151C81.1855 18.9292 81.1408 18.445 81.0513 18.0625C80.9699 17.6719 80.7705 17.3626 80.4531 17.1348C80.1357 16.8988 79.6637 16.736 79.0371 16.6465C78.4186 16.5488 77.5723 16.5 76.498 16.5C75.4482 16.5 74.5938 16.5936 73.9346 16.7808C73.2754 16.9598 72.7586 17.2161 72.3843 17.5498C72.0099 17.8835 71.7536 18.2822 71.6152 18.7461C71.485 19.21 71.4199 19.7267 71.4199 20.2964V29H69.0762V14.9375H71.4199V17.1714C71.5013 16.9191 71.6519 16.6424 71.8716 16.3413C72.0913 16.0321 72.425 15.7472 72.8726 15.4868C73.3201 15.2183 73.8979 14.9945 74.606 14.8154C75.3221 14.6364 76.2132 14.5469 77.2793 14.5469C78.5 14.5469 79.4928 14.6567 80.2578 14.8765C81.0228 15.0881 81.6169 15.4054 82.04 15.8286C82.4714 16.2437 82.7603 16.7604 82.9067 17.3789C83.0614 17.9974 83.1387 18.7095 83.1387 19.5151H81.1855ZM91.3418 29L83.9199 14.9375H86.6543L92.9043 27.4375L99.1543 14.9375H101.889L94.4668 29H91.3418ZM103.061 21.8711C103.061 20.4307 103.215 19.2384 103.524 18.2944C103.834 17.3504 104.33 16.6017 105.014 16.0483C105.697 15.495 106.584 15.1084 107.675 14.8887C108.765 14.6608 110.092 14.5469 111.654 14.5469C113.217 14.5469 114.543 14.6608 115.634 14.8887C116.724 15.1084 117.611 15.495 118.295 16.0483C118.979 16.6017 119.475 17.3504 119.784 18.2944C120.093 19.2384 120.248 20.4307 120.248 21.8711C120.248 23.3115 120.093 24.5078 119.784 25.46C119.475 26.4121 118.979 27.1689 118.295 27.7305C117.611 28.292 116.724 28.6908 115.634 28.9268C114.543 29.1546 113.217 29.2686 111.654 29.2686C110.092 29.2686 108.765 29.1546 107.675 28.9268C106.584 28.6908 105.697 28.292 105.014 27.7305C104.33 27.1689 103.834 26.4121 103.524 25.46C103.215 24.5078 103.061 23.3115 103.061 21.8711ZM105.404 21.8711C105.404 22.6523 105.433 23.3319 105.49 23.9097C105.547 24.4875 105.653 24.9839 105.807 25.3989C105.97 25.814 106.194 26.1517 106.479 26.4121C106.763 26.6725 107.138 26.88 107.602 27.0347C108.065 27.1893 108.627 27.2951 109.286 27.3521C109.953 27.409 110.743 27.4375 111.654 27.4375C112.436 27.4375 113.131 27.4212 113.742 27.3887C114.36 27.348 114.897 27.2625 115.353 27.1323C115.817 27.0021 116.212 26.819 116.537 26.583C116.863 26.3389 117.123 26.0093 117.318 25.5942C117.522 25.1792 117.668 24.6706 117.758 24.0684C117.855 23.458 117.904 22.7256 117.904 21.8711C117.904 21.0329 117.855 20.3208 117.758 19.7349C117.668 19.1408 117.522 18.6444 117.318 18.2456C117.123 17.8468 116.863 17.5335 116.537 17.3057C116.212 17.0697 115.817 16.8947 115.353 16.7808C114.897 16.6587 114.36 16.5814 113.742 16.5488C113.131 16.5163 112.436 16.5 111.654 16.5C110.873 16.5 110.173 16.5163 109.555 16.5488C108.944 16.5814 108.407 16.6587 107.943 16.7808C107.488 16.8947 107.097 17.0697 106.771 17.3057C106.446 17.5335 106.181 17.8468 105.978 18.2456C105.783 18.6444 105.636 19.1408 105.539 19.7349C105.449 20.3208 105.404 21.0329 105.404 21.8711ZM123.764 10.25H126.107V29H123.764V10.25ZM132.37 14.9375V22.75C132.37 23.6208 132.435 24.3573 132.565 24.9595C132.695 25.5535 132.956 26.0337 133.346 26.3999C133.737 26.7661 134.29 27.0306 135.006 27.1934C135.722 27.3561 136.667 27.4375 137.838 27.4375C139.108 27.4375 140.146 27.3439 140.951 27.1567C141.765 26.9696 142.404 26.7051 142.868 26.3633C143.332 26.0215 143.649 25.6105 143.82 25.1304C143.999 24.6502 144.088 24.1172 144.088 23.5312V14.9375H146.432V29H144.088V26.6562C143.974 26.9085 143.783 27.1893 143.515 27.4985C143.246 27.7996 142.843 28.0804 142.306 28.3408C141.769 28.6012 141.073 28.821 140.219 29C139.372 29.179 138.319 29.2686 137.057 29.2686C136.007 29.2686 135.104 29.2035 134.347 29.0732C133.598 28.9512 132.96 28.7681 132.431 28.5239C131.91 28.2716 131.491 27.9624 131.173 27.5962C130.856 27.23 130.612 26.8068 130.441 26.3267C130.27 25.8384 130.156 25.2972 130.099 24.7031C130.042 24.109 130.014 23.458 130.014 22.75L130.026 14.9375H132.37ZM163.241 22.75C163.241 23.9463 163.144 24.9473 162.948 25.7529C162.753 26.5505 162.423 27.1893 161.959 27.6694C161.504 28.1496 160.902 28.4914 160.153 28.6948C159.404 28.8983 158.48 29 157.382 29C156.316 29 155.421 28.9186 154.696 28.7559C153.972 28.5931 153.386 28.3164 152.938 27.9258C152.491 27.5352 152.169 27.0143 151.974 26.3633C151.779 25.7122 151.681 24.8984 151.681 23.9219V16.8662H148.788V14.9375H151.681V11.0923H154.025V14.9375H162.851V16.8662H154.025V23.9219C154.025 24.7031 154.082 25.3053 154.196 25.7285C154.318 26.1517 154.509 26.4609 154.77 26.6562C155.03 26.8516 155.372 26.9655 155.795 26.998C156.226 27.0306 156.751 27.0469 157.37 27.0469C157.858 27.0469 158.293 27.0387 158.676 27.0225C159.066 27.0062 159.404 26.9574 159.689 26.876C159.982 26.7865 160.23 26.6562 160.434 26.4854C160.637 26.3063 160.8 26.0581 160.922 25.7407C161.052 25.4233 161.146 25.0246 161.203 24.5444C161.26 24.0562 161.288 23.458 161.288 22.75H163.241ZM173.788 29.2686C172.226 29.2686 170.899 29.1628 169.809 28.9512C168.718 28.7314 167.831 28.3571 167.147 27.8281C166.464 27.2992 165.967 26.5911 165.658 25.7041C165.349 24.8171 165.194 23.7021 165.194 22.3594C165.194 20.8213 165.349 19.5518 165.658 18.5508C165.967 17.5417 166.464 16.7401 167.147 16.146C167.831 15.5519 168.718 15.1369 169.809 14.9009C170.899 14.6649 172.226 14.5469 173.788 14.5469C174.903 14.5469 175.867 14.6283 176.681 14.791C177.503 14.9538 178.203 15.1898 178.781 15.499C179.367 15.8083 179.839 16.1826 180.197 16.6221C180.563 17.0615 180.848 17.5254 181.051 18.0137C181.263 18.4938 181.405 19.0594 181.479 19.7104C181.56 20.3615 181.601 21.0492 181.601 21.7734L181.405 22.5547H167.538C167.538 23.6289 167.644 24.5119 167.855 25.2036C168.067 25.8872 168.417 26.3877 168.905 26.7051C169.394 27.0225 170.036 27.2259 170.834 27.3154C171.632 27.3968 172.616 27.4375 173.788 27.4375C174.862 27.4375 175.749 27.409 176.449 27.3521C177.157 27.2869 177.719 27.1689 178.134 26.998C178.549 26.8271 178.838 26.5911 179 26.29C179.171 25.9808 179.257 25.582 179.257 25.0938H181.601C181.601 25.8506 181.466 26.4976 181.198 27.0347C180.937 27.5636 180.502 27.995 179.892 28.3286C179.281 28.6541 178.476 28.8901 177.475 29.0366C176.482 29.1912 175.253 29.2686 173.788 29.2686ZM173.788 16.5C173.007 16.5 172.307 16.5163 171.688 16.5488C171.078 16.5814 170.541 16.6546 170.077 16.7686C169.621 16.8743 169.231 17.033 168.905 17.2446C168.58 17.4481 168.315 17.6922 168.112 17.9771C167.917 18.2537 167.77 18.6484 167.672 19.1611C167.583 19.6657 167.538 20.276 167.538 20.9922H179.257C179.257 20.04 179.155 19.2954 178.952 18.7583C178.748 18.2131 178.427 17.7655 177.987 17.4155C177.548 17.0656 176.982 16.8255 176.291 16.6953C175.599 16.5651 174.765 16.5 173.788 16.5Z" fill="white"/>
</svg>
