<svg version="1.1" id="Layer_1" xmlns="http://www.w3.org/2000/svg" xmlns:xlink="http://www.w3.org/1999/xlink" x="0px" y="0px"
	 width="100%" viewBox="0 0 3360 2100" enable-background="new 0 0 3360 2100" xml:space="preserve">
<path fill="#000000" opacity="1.000000" stroke="none" 
	d="
M2098.000000,2102.000000 
	C1398.666626,2102.000000 700.333313,2102.000000 2.000000,2102.000000 
	C2.000000,1402.000000 2.000000,702.000000 2.000000,2.000000 
	C1122.000000,2.000000 2242.000000,2.000000 3362.000000,2.000000 
	C3362.000000,702.000000 3362.000000,1402.000000 3362.000000,2102.000000 
	C2941.000000,2102.000000 2520.000000,2102.000000 2098.000000,2102.000000 
M857.543701,1445.904175 
	C860.307190,1446.246826 863.442200,1448.957642 866.488342,1443.864868 
	C862.480164,1443.364746 859.363525,1442.975830 855.011963,1441.694824 
	C838.776489,1437.160522 822.600769,1432.397827 806.293335,1428.139038 
	C770.758728,1418.859253 735.141541,1409.895752 699.588684,1400.684937 
	C679.100647,1395.377197 658.703308,1389.718628 638.208252,1384.438721 
	C617.380798,1379.073364 596.464966,1374.051880 575.626282,1368.729248 
	C567.558228,1366.668457 567.296204,1366.283569 567.292419,1357.804321 
	C567.253357,1269.243164 567.261108,1180.682007 567.315796,1092.120850 
	C567.317322,1089.670410 567.986633,1087.220337 568.382874,1084.508057 
	C570.572205,1084.623657 571.888000,1084.523560 573.128174,1084.783936 
	C592.233398,1088.794434 611.342957,1092.786377 630.422485,1096.916748 
	C649.498169,1101.045898 668.517029,1105.439453 687.604980,1109.510010 
	C715.101746,1115.373779 742.615173,1121.165039 770.171265,1126.741089 
	C779.137634,1128.555298 788.260010,1129.598633 798.567871,1131.931030 
	C800.882202,1133.124146 803.150452,1135.163208 807.449829,1131.347412 
	C803.517395,1130.023560 800.877014,1129.134644 797.750061,1126.911011 
	C796.432739,1125.943359 795.199280,1124.827148 793.785706,1124.030151 
	C767.859497,1109.413574 741.939392,1094.785522 715.962769,1080.258789 
	C659.065674,1048.440674 602.109497,1016.728027 545.262451,984.820862 
	C539.042236,981.329651 533.639648,981.530762 527.518433,984.972656 
	C485.976410,1008.330627 444.326782,1031.497314 402.719788,1054.739746 
	C368.638123,1073.778442 334.520538,1092.753662 300.523499,1111.942505 
	C291.675354,1116.936646 283.218231,1122.623535 273.296326,1128.047852 
	C270.723877,1129.109253 267.297821,1129.095825 266.593079,1134.679199 
	C270.238617,1133.328979 273.043274,1132.290283 277.450592,1131.695801 
	C294.645355,1128.173218 311.861786,1124.752319 329.028809,1121.099365 
	C345.857330,1117.518555 362.617157,1113.615234 379.440857,1110.010986 
	C398.219299,1105.987915 417.048401,1102.201538 435.832123,1098.202637 
	C454.968445,1094.128540 474.001770,1089.525269 493.221558,1085.903931 
	C507.323730,1083.246948 505.901489,1083.366943 505.907440,1096.186035 
	C505.947357,1181.850708 505.928131,1267.515259 505.927979,1353.179932 
	C505.927979,1354.846558 505.992554,1356.516357 505.913452,1358.179321 
	C505.577759,1365.235352 504.464935,1366.685059 497.686279,1368.591431 
	C493.868500,1369.665161 489.995697,1370.541748 486.156952,1371.542480 
	C457.928558,1378.902344 429.717133,1386.327881 401.471802,1393.622070 
	C367.811371,1402.314575 334.124878,1410.906372 300.444885,1419.522949 
	C283.105591,1423.958984 265.700684,1428.151245 248.431046,1432.842529 
	C237.605362,1435.783203 226.975861,1439.446167 214.825974,1442.541016 
	C211.580261,1442.276611 208.915802,1443.238647 206.801315,1445.361084 
	C207.030777,1446.052856 207.260223,1446.744629 207.489685,1447.436523 
	C210.415085,1446.708130 213.340485,1445.979858 218.015640,1445.872070 
	C221.005753,1445.976196 223.995880,1446.171143 226.985992,1446.171387 
	C433.441284,1446.185791 639.896545,1446.188110 846.351868,1446.154175 
	C849.651428,1446.153687 852.950928,1445.693115 857.543701,1445.904175 
M1818.414673,993.386963 
	C1817.580322,994.823425 1816.669434,996.221313 1815.923096,997.702087 
	C1794.058472,1041.083374 1788.881592,1087.083130 1796.848877,1134.351807 
	C1803.635254,1174.614014 1827.645874,1199.500610 1868.651611,1206.661621 
	C1902.044189,1212.493042 1935.383179,1211.932373 1968.564453,1205.298462 
	C1998.236206,1199.366089 2022.192139,1183.652344 2039.688965,1159.340210 
	C2074.739258,1110.637085 2087.552979,1055.876831 2077.358643,996.996399 
	C2070.624023,958.097473 2047.509033,931.800232 2007.439087,922.960022 
	C1978.545288,916.585510 1949.494995,916.690979 1920.509033,921.790405 
	C1876.005981,929.619568 1842.189087,953.178711 1818.414673,993.386963 
M1516.306885,1133.320923 
	C1511.316528,1157.275024 1506.326294,1181.229004 1501.199341,1205.838867 
	C1533.986206,1205.838867 1565.842773,1205.838867 1598.382446,1205.838867 
	C1600.684326,1195.492065 1603.015747,1185.184448 1605.263794,1174.858765 
	C1607.450317,1164.816162 1609.567871,1154.758423 1611.685791,1144.701050 
	C1613.872192,1134.317871 1615.699097,1123.845947 1618.280640,1113.562866 
	C1620.786499,1103.581177 1620.972534,1092.903076 1627.207886,1083.401245 
	C1641.842896,1124.201172 1654.274048,1165.476807 1667.638428,1205.749023 
	C1701.698975,1205.749023 1734.509155,1205.749023 1768.108765,1205.749023 
	C1750.938599,1161.462646 1734.069214,1117.951904 1716.906128,1073.683716 
	C1720.910156,1072.061768 1724.231201,1070.755005 1727.522705,1069.377319 
	C1768.586304,1052.190063 1785.027954,1012.717285 1778.357300,974.698914 
	C1773.843628,948.973938 1756.877441,935.279541 1733.147095,928.343445 
	C1714.783203,922.975891 1695.694824,923.050354 1676.901367,922.582825 
	C1641.269287,921.696289 1605.599487,922.313782 1569.945435,922.349792 
	C1567.062256,922.352661 1564.179321,922.688965 1561.212769,922.875610 
	C1553.306885,959.898071 1545.569824,996.182800 1537.807983,1032.462158 
	C1530.734375,1065.525269 1523.634033,1098.582520 1516.306885,1133.320923 
M2325.777344,1055.461304 
	C2337.897461,1105.660522 2350.017578,1155.859741 2362.081787,1205.827881 
	C2397.968750,1205.827881 2432.839111,1205.827881 2467.957275,1205.827881 
	C2488.098633,1112.381226 2508.146973,1019.371521 2528.172852,926.356995 
	C2528.306641,925.735657 2528.154785,925.044128 2528.084229,924.390991 
	C2528.049316,924.066040 2527.956055,923.713989 2527.778809,923.447632 
	C2527.615479,923.201843 2527.304688,923.054199 2526.880127,922.724426 
	C2513.820801,922.724426 2500.585938,922.724426 2486.866455,922.724426 
	C2472.526367,989.959839 2458.246094,1056.914917 2443.965820,1123.869995 
	C2443.374023,1123.855713 2442.782227,1123.841309 2442.190186,1123.826904 
	C2427.020020,1056.726685 2411.849609,989.626465 2396.803223,923.073975 
	C2360.128418,923.073975 2324.647705,923.073975 2289.110107,923.073975 
	C2269.039062,1017.630432 2249.117432,1111.482178 2229.058838,1205.979004 
	C2243.467041,1205.979004 2256.375732,1205.979004 2270.281494,1205.979004 
	C2284.333252,1140.288940 2298.399658,1074.531860 2312.465820,1008.774841 
	C2313.043701,1008.750427 2313.621582,1008.726013 2314.199463,1008.701599 
	C2317.958984,1023.742554 2321.718506,1038.783447 2325.777344,1055.461304 
M337.173981,968.273743 
	C357.650208,941.856018 378.159424,915.463806 398.595703,889.015259 
	C439.571564,835.984375 480.496521,782.914185 521.475098,729.885437 
	C526.271606,723.678467 531.272522,717.629517 536.607178,710.972534 
	C537.733887,712.436768 538.326355,713.214783 538.927124,713.986267 
	C559.529541,740.440430 580.224854,766.822815 600.716736,793.362305 
	C643.697144,849.027283 686.538757,904.799377 729.500305,960.479004 
	C754.416748,992.771545 779.402283,1025.011108 804.458313,1057.195557 
	C820.531738,1077.841797 836.747742,1098.377686 853.023865,1118.864502 
	C854.885193,1121.207520 856.357056,1124.799194 862.134094,1123.785278 
	C858.320618,1115.899658 855.319519,1108.305176 851.191345,1101.382812 
	C824.739258,1057.026123 798.020081,1012.828979 771.427429,968.556091 
	C748.565491,930.494202 725.745544,892.407104 702.924744,854.320496 
	C685.398987,825.071106 667.896118,795.807983 650.391907,766.545654 
	C633.562744,738.411865 616.747803,710.269531 599.921570,682.133972 
	C581.211365,650.848511 562.541687,619.538696 543.752441,588.300842 
	C538.427429,579.447876 533.979675,579.572815 528.770569,588.296936 
	C512.650208,615.294617 496.489105,642.268005 480.363678,669.262695 
	C458.614441,705.671936 436.912018,742.109192 415.137573,778.503296 
	C390.291962,820.030640 365.340302,861.494446 340.525238,903.039978 
	C316.266418,943.654175 292.186981,984.375610 267.903595,1024.975098 
	C252.085373,1051.421753 235.937561,1077.671631 220.181656,1104.154907 
	C216.562866,1110.237549 212.785690,1116.482910 211.830734,1126.149658 
	C215.478302,1122.873657 217.876892,1121.205078 219.660660,1119.031860 
	C226.807144,1110.325195 233.864044,1101.540527 240.771988,1092.643311 
	C272.645966,1051.590332 304.458893,1010.489929 337.173981,968.273743 
M1161.000488,922.324585 
	C1147.025635,922.324585 1133.050903,922.324585 1118.837402,922.324585 
	C1074.925781,1016.871948 1031.193359,1111.033569 987.079346,1206.016602 
	C1002.813660,1206.016602 1017.085510,1206.016602 1031.624146,1206.016602 
	C1042.092651,1182.710449 1052.518433,1159.499512 1062.756104,1136.707520 
	C1090.468262,1136.707520 1117.065552,1136.707520 1144.419556,1136.707520 
	C1146.548340,1159.963745 1148.651123,1182.935913 1150.745483,1205.817627 
	C1186.139160,1205.817627 1220.671509,1205.817627 1256.040405,1205.817627 
	C1245.729614,1110.977051 1235.484863,1016.742798 1225.219971,922.324585 
	C1203.637329,922.324585 1183.318848,922.324585 1161.000488,922.324585 
M2900.336670,1023.537170 
	C2905.211914,1001.652771 2910.087158,979.768433 2915.077148,957.368958 
	C2945.699463,957.368958 2975.582275,957.368958 3005.904541,957.368958 
	C3008.262939,945.598145 3010.499512,934.435120 3012.845947,922.723938 
	C2949.071045,922.723938 2886.870361,922.723938 2824.199219,922.723938 
	C2804.150635,1017.136780 2784.163574,1111.259766 2764.097168,1205.757324 
	C2827.794922,1205.757324 2890.273926,1205.757324 2953.081787,1205.757324 
	C2955.218262,1194.334595 2957.260498,1183.416626 2959.448730,1171.717285 
	C2929.188232,1171.717285 2899.607910,1171.717285 2868.744141,1171.717285 
	C2875.557617,1139.854858 2882.175781,1108.905762 2888.940918,1077.269775 
	C2914.894775,1077.269775 2940.069580,1077.269775 2965.249268,1077.269775 
	C2967.739990,1065.302246 2970.052979,1054.187378 2972.541748,1042.229004 
	C2946.362549,1042.229004 2921.768799,1042.229004 2896.596436,1042.229004 
	C2897.859619,1036.111938 2898.985596,1030.658325 2900.336670,1023.537170 
M1289.686646,1146.538940 
	C1285.542603,1166.148193 1281.398560,1185.757324 1277.183105,1205.704346 
	C1340.976440,1205.704346 1403.388184,1205.704346 1466.038696,1205.704346 
	C1468.197754,1194.238037 1470.249023,1183.344360 1472.464233,1171.579956 
	C1441.715942,1171.579956 1412.178223,1171.579956 1381.725830,1171.579956 
	C1388.551147,1139.781372 1395.193604,1108.834473 1401.914185,1077.523438 
	C1427.832031,1077.523438 1452.714233,1077.523438 1478.061279,1077.523438 
	C1480.598267,1065.763306 1483.031128,1054.485718 1485.659058,1042.303833 
	C1460.068115,1042.303833 1435.185669,1042.303833 1409.387329,1042.303833 
	C1415.664917,1013.619690 1421.734985,985.883728 1427.907959,957.677673 
	C1438.473267,957.677673 1448.432251,957.677673 1458.391113,957.677673 
	C1468.716919,957.677673 1479.042603,957.686279 1489.368408,957.675354 
	C1499.224609,957.664917 1509.080933,957.634155 1518.855469,957.612549 
	C1521.388062,945.262695 1523.627075,934.344238 1525.978516,922.877930 
	C1462.529175,922.877930 1400.077759,922.877930 1337.961914,922.877930 
	C1337.261475,923.975586 1336.713501,924.484985 1336.586304,925.083740 
	C1328.944092,961.064697 1321.361572,997.058289 1313.718872,1033.039062 
	C1305.800415,1070.318115 1297.826782,1107.585327 1289.686646,1146.538940 
M2569.115479,957.678528 
	C2585.916260,957.678528 2602.716797,957.678528 2620.211426,957.678528 
	C2602.455078,1041.241211 2585.026123,1123.262695 2567.484131,1205.815430 
	C2600.318359,1205.815430 2632.489990,1205.815430 2664.955566,1205.815430 
	C2682.621826,1122.845581 2700.194336,1040.316528 2717.829102,957.495728 
	C2742.356445,957.495728 2765.628906,957.495728 2789.588623,957.495728 
	C2792.170898,945.700989 2794.661865,934.322266 2797.197021,922.741699 
	C2716.787598,922.741699 2637.567627,922.741699 2557.915771,922.741699 
	C2554.952393,934.328857 2551.476807,945.479248 2550.213623,957.678528 
	C2556.523682,957.678528 2561.841064,957.678528 2569.115479,957.678528 
M3046.137207,932.969482 
	C3043.307373,946.262512 3040.484131,959.557007 3037.646729,972.848389 
	C3026.508789,1025.021362 3015.342041,1077.188232 3004.235596,1129.367920 
	C2998.860596,1154.621460 2993.595215,1179.898315 2988.148193,1205.790039 
	C3051.086914,1205.790039 3113.519043,1205.790039 3176.496582,1205.790039 
	C3178.967041,1193.484619 3181.361328,1181.557861 3184.042725,1168.201904 
	C3153.545166,1168.201904 3123.899414,1168.201904 3093.667725,1168.201904 
	C3111.301270,1085.675537 3128.640869,1004.526550 3146.120850,922.720032 
	C3112.825928,922.720032 3080.937500,922.720032 3048.626953,922.720032 
	C3047.834717,925.649292 3047.071533,928.471191 3046.137207,932.969482 
M2125.000244,1206.336914 
	C2143.858398,1206.336914 2162.716309,1206.336914 2181.480957,1206.336914 
	C2201.848389,1111.084839 2221.916992,1017.230896 2242.126709,922.715698 
	C2208.785645,922.715698 2176.876709,922.715698 2144.211426,922.715698 
	C2124.184814,1017.000366 2104.183838,1111.163452 2083.968018,1206.336914 
	C2097.770996,1206.336914 2110.385986,1206.336914 2125.000244,1206.336914 
z"/>
<path fill="#FBFBFB" opacity="1.000000" stroke="none" 
	d="
M797.311035,1130.994629 
	C788.260010,1129.598633 779.137634,1128.555298 770.171265,1126.741089 
	C742.615173,1121.165039 715.101746,1115.373779 687.604980,1109.510010 
	C668.517029,1105.439453 649.498169,1101.045898 630.422485,1096.916748 
	C611.342957,1092.786377 592.233398,1088.794434 573.128174,1084.783936 
	C571.888000,1084.523560 570.572205,1084.623657 568.382874,1084.508057 
	C567.986633,1087.220337 567.317322,1089.670410 567.315796,1092.120850 
	C567.261108,1180.682007 567.253357,1269.243164 567.292419,1357.804321 
	C567.296204,1366.283569 567.558228,1366.668457 575.626282,1368.729248 
	C596.464966,1374.051880 617.380798,1379.073364 638.208252,1384.438721 
	C658.703308,1389.718628 679.100647,1395.377197 699.588684,1400.684937 
	C735.141541,1409.895752 770.758728,1418.859253 806.293335,1428.139038 
	C822.600769,1432.397827 838.776489,1437.160522 855.463257,1442.604492 
	C855.829102,1444.192749 855.941101,1444.837036 856.250427,1445.447266 
	C852.950928,1445.693115 849.651428,1446.153687 846.351868,1446.154175 
	C639.896545,1446.188110 433.441284,1446.185791 226.985992,1446.171387 
	C223.995880,1446.171143 221.005753,1445.976196 217.379120,1445.172241 
	C216.907120,1443.816284 216.745697,1443.253784 216.258316,1442.784912 
	C226.975861,1439.446167 237.605362,1435.783203 248.431046,1432.842529 
	C265.700684,1428.151245 283.105591,1423.958984 300.444885,1419.522949 
	C334.124878,1410.906372 367.811371,1402.314575 401.471802,1393.622070 
	C429.717133,1386.327881 457.928558,1378.902344 486.156952,1371.542480 
	C489.995697,1370.541748 493.868500,1369.665161 497.686279,1368.591431 
	C504.464935,1366.685059 505.577759,1365.235352 505.913452,1358.179321 
	C505.992554,1356.516357 505.927979,1354.846558 505.927979,1353.179932 
	C505.928131,1267.515259 505.947357,1181.850708 505.907440,1096.186035 
	C505.901489,1083.366943 507.323730,1083.246948 493.221558,1085.903931 
	C474.001770,1089.525269 454.968445,1094.128540 435.832123,1098.202637 
	C417.048401,1102.201538 398.219299,1105.987915 379.440857,1110.010986 
	C362.617157,1113.615234 345.857330,1117.518555 329.028809,1121.099365 
	C311.861786,1124.752319 294.645355,1128.173218 276.639282,1130.872559 
	C275.412445,1129.363647 274.996979,1128.677979 274.581512,1127.992310 
	C283.218231,1122.623535 291.675354,1116.936646 300.523499,1111.942505 
	C334.520538,1092.753662 368.638123,1073.778442 402.719788,1054.739746 
	C444.326782,1031.497314 485.976410,1008.330627 527.518433,984.972656 
	C533.639648,981.530762 539.042236,981.329651 545.262451,984.820862 
	C602.109497,1016.728027 659.065674,1048.440674 715.962769,1080.258789 
	C741.939392,1094.785522 767.859497,1109.413574 793.785706,1124.030151 
	C795.199280,1124.827148 796.432739,1125.943359 797.708862,1127.990479 
	C797.548828,1129.711548 797.429932,1130.353027 797.311035,1130.994629 
z"/>
<path fill="#FDFDFD" opacity="1.000000" stroke="none" 
	d="
M1818.805420,992.769409 
	C1842.189087,953.178711 1876.005981,929.619568 1920.509033,921.790405 
	C1949.494995,916.690979 1978.545288,916.585510 2007.439087,922.960022 
	C2047.509033,931.800232 2070.624023,958.097473 2077.358643,996.996399 
	C2087.552979,1055.876831 2074.739258,1110.637085 2039.688965,1159.340210 
	C2022.192139,1183.652344 1998.236206,1199.366089 1968.564453,1205.298462 
	C1935.383179,1211.932373 1902.044189,1212.493042 1868.651611,1206.661621 
	C1827.645874,1199.500610 1803.635254,1174.614014 1796.848877,1134.351807 
	C1788.881592,1087.083130 1794.058472,1041.083374 1815.923096,997.702087 
	C1816.669434,996.221313 1817.580322,994.823425 1818.805420,992.769409 
M1950.877808,1137.715942 
	C1960.880737,1114.837280 1968.257690,1091.080933 1972.798096,1066.587891 
	C1976.470459,1046.777222 1979.693481,1026.786011 1981.328735,1006.729065 
	C1982.423096,993.305603 1981.479248,979.462830 1979.466553,966.106140 
	C1977.175903,950.903503 1965.589111,946.340820 1952.021118,953.773621 
	C1944.834595,957.710449 1939.816528,963.864380 1935.218506,970.388977 
	C1923.423096,987.126953 1916.067017,1005.884888 1910.028320,1025.305420 
	C1899.046143,1060.625122 1892.554443,1096.703247 1891.823120,1133.683716 
	C1891.641113,1142.882080 1892.571777,1152.312500 1894.536255,1161.298340 
	C1898.303101,1178.527344 1913.155151,1183.305664 1927.001099,1172.351318 
	C1928.817139,1170.914673 1930.692383,1169.342285 1931.945435,1167.440552 
	C1938.131958,1158.051514 1944.118042,1148.530396 1950.877808,1137.715942 
z"/>
<path fill="#FDFDFD" opacity="1.000000" stroke="none" 
	d="
M1516.426147,1132.481689 
	C1523.634033,1098.582520 1530.734375,1065.525269 1537.807983,1032.462158 
	C1545.569824,996.182800 1553.306885,959.898071 1561.212769,922.875610 
	C1564.179321,922.688965 1567.062256,922.352661 1569.945435,922.349792 
	C1605.599487,922.313782 1641.269287,921.696289 1676.901367,922.582825 
	C1695.694824,923.050354 1714.783203,922.975891 1733.147095,928.343445 
	C1756.877441,935.279541 1773.843628,948.973938 1778.357300,974.698914 
	C1785.027954,1012.717285 1768.586304,1052.190063 1727.522705,1069.377319 
	C1724.231201,1070.755005 1720.910156,1072.061768 1716.906128,1073.683716 
	C1734.069214,1117.951904 1750.938599,1161.462646 1768.108765,1205.749023 
	C1734.509155,1205.749023 1701.698975,1205.749023 1667.638428,1205.749023 
	C1654.274048,1165.476807 1641.842896,1124.201172 1627.207886,1083.401245 
	C1620.972534,1092.903076 1620.786499,1103.581177 1618.280640,1113.562866 
	C1615.699097,1123.845947 1613.872192,1134.317871 1611.685791,1144.701050 
	C1609.567871,1154.758423 1607.450317,1164.816162 1605.263794,1174.858765 
	C1603.015747,1185.184448 1600.684326,1195.492065 1598.382446,1205.838867 
	C1565.842773,1205.838867 1533.986206,1205.838867 1501.199341,1205.838867 
	C1506.326294,1181.229004 1511.316528,1157.275024 1516.426147,1132.481689 
M1639.606445,1014.476685 
	C1636.716797,1027.275269 1633.827271,1040.073853 1630.753418,1053.688599 
	C1637.178467,1053.688599 1642.175415,1053.348511 1647.111084,1053.753906 
	C1660.512573,1054.854858 1670.031006,1048.695068 1677.287109,1038.158203 
	C1689.426880,1020.530090 1692.634888,1000.299500 1693.454224,979.609009 
	C1693.655273,974.534912 1691.483154,969.277405 1689.936646,964.247375 
	C1688.204956,958.615662 1683.625366,955.214111 1678.199097,954.739746 
	C1669.748779,954.000977 1661.186401,954.544373 1652.564331,954.544373 
	C1648.136475,974.638000 1643.932373,993.716431 1639.606445,1014.476685 
z"/>
<path fill="#FDFDFD" opacity="1.000000" stroke="none" 
	d="
M2325.627686,1054.642822 
	C2321.718506,1038.783447 2317.958984,1023.742554 2314.199463,1008.701599 
	C2313.621582,1008.726013 2313.043701,1008.750427 2312.465820,1008.774841 
	C2298.399658,1074.531860 2284.333252,1140.288940 2270.281494,1205.979004 
	C2256.375732,1205.979004 2243.467041,1205.979004 2229.058838,1205.979004 
	C2249.117432,1111.482178 2269.039062,1017.630432 2289.110107,923.073975 
	C2324.647705,923.073975 2360.128418,923.073975 2396.803223,923.073975 
	C2411.849609,989.626465 2427.020020,1056.726685 2442.190186,1123.826904 
	C2442.782227,1123.841309 2443.374023,1123.855713 2443.965820,1123.869995 
	C2458.246094,1056.914917 2472.526367,989.959839 2486.866455,922.724426 
	C2500.585938,922.724426 2513.820801,922.724426 2526.880127,922.724426 
	C2527.304688,923.054199 2527.615479,923.201843 2527.778809,923.447632 
	C2527.956055,923.713989 2528.049316,924.066040 2528.084229,924.390991 
	C2528.154785,925.044128 2528.306641,925.735657 2528.172852,926.356995 
	C2508.146973,1019.371521 2488.098633,1112.381226 2467.957275,1205.827881 
	C2432.839111,1205.827881 2397.968750,1205.827881 2362.081787,1205.827881 
	C2350.017578,1155.859741 2337.897461,1105.660522 2325.627686,1054.642822 
z"/>
<path fill="#FAFAFA" opacity="1.000000" stroke="none" 
	d="
M336.733826,968.840149 
	C304.458893,1010.489929 272.645966,1051.590332 240.771988,1092.643311 
	C233.864044,1101.540527 226.807144,1110.325195 219.660660,1119.031860 
	C217.876892,1121.205078 215.478302,1122.873657 211.830734,1126.149658 
	C212.785690,1116.482910 216.562866,1110.237549 220.181656,1104.154907 
	C235.937561,1077.671631 252.085373,1051.421753 267.903595,1024.975098 
	C292.186981,984.375610 316.266418,943.654175 340.525238,903.039978 
	C365.340302,861.494446 390.291962,820.030640 415.137573,778.503296 
	C436.912018,742.109192 458.614441,705.671936 480.363678,669.262695 
	C496.489105,642.268005 512.650208,615.294617 528.770569,588.296936 
	C533.979675,579.572815 538.427429,579.447876 543.752441,588.300842 
	C562.541687,619.538696 581.211365,650.848511 599.921570,682.133972 
	C616.747803,710.269531 633.562744,738.411865 650.391907,766.545654 
	C667.896118,795.807983 685.398987,825.071106 702.924744,854.320496 
	C725.745544,892.407104 748.565491,930.494202 771.427429,968.556091 
	C798.020081,1012.828979 824.739258,1057.026123 851.191345,1101.382812 
	C855.319519,1108.305176 858.320618,1115.899658 862.134094,1123.785278 
	C856.357056,1124.799194 854.885193,1121.207520 853.023865,1118.864502 
	C836.747742,1098.377686 820.531738,1077.841797 804.458313,1057.195557 
	C779.402283,1025.011108 754.416748,992.771545 729.500305,960.479004 
	C686.538757,904.799377 643.697144,849.027283 600.716736,793.362305 
	C580.224854,766.822815 559.529541,740.440430 538.927124,713.986267 
	C538.326355,713.214783 537.733887,712.436768 536.607178,710.972534 
	C531.272522,717.629517 526.271606,723.678467 521.475098,729.885437 
	C480.496521,782.914185 439.571564,835.984375 398.595703,889.015259 
	C378.159424,915.463806 357.650208,941.856018 336.733826,968.840149 
z"/>
<path fill="#FDFDFD" opacity="1.000000" stroke="none" 
	d="
M1162.000366,922.324585 
	C1183.318848,922.324585 1203.637329,922.324585 1225.219971,922.324585 
	C1235.484863,1016.742798 1245.729614,1110.977051 1256.040405,1205.817627 
	C1220.671509,1205.817627 1186.139160,1205.817627 1150.745483,1205.817627 
	C1148.651123,1182.935913 1146.548340,1159.963745 1144.419556,1136.707520 
	C1117.065552,1136.707520 1090.468262,1136.707520 1062.756104,1136.707520 
	C1052.518433,1159.499512 1042.092651,1182.710449 1031.624146,1206.016602 
	C1017.085510,1206.016602 1002.813660,1206.016602 987.079346,1206.016602 
	C1031.193359,1111.033569 1074.925781,1016.871948 1118.837402,922.324585 
	C1133.050903,922.324585 1147.025635,922.324585 1162.000366,922.324585 
M1132.055664,990.787964 
	C1131.850952,989.131958 1131.646118,987.475952 1131.441406,985.819946 
	C1130.909790,985.801208 1130.378174,985.782471 1129.846558,985.763733 
	C1129.223145,987.838074 1128.599854,989.912415 1127.255005,993.195312 
	C1110.988770,1029.176636 1094.476196,1065.051514 1078.755249,1101.920654 
	C1100.465698,1101.920654 1120.668457,1101.920654 1141.274902,1101.920654 
	C1138.090210,1065.009155 1134.944946,1028.553833 1132.055664,990.787964 
z"/>
<path fill="#FCFCFC" opacity="1.000000" stroke="none" 
	d="
M2900.224121,1024.370972 
	C2898.985596,1030.658325 2897.859619,1036.111938 2896.596436,1042.229004 
	C2921.768799,1042.229004 2946.362549,1042.229004 2972.541748,1042.229004 
	C2970.052979,1054.187378 2967.739990,1065.302246 2965.249268,1077.269775 
	C2940.069580,1077.269775 2914.894775,1077.269775 2888.940918,1077.269775 
	C2882.175781,1108.905762 2875.557617,1139.854858 2868.744141,1171.717285 
	C2899.607910,1171.717285 2929.188232,1171.717285 2959.448730,1171.717285 
	C2957.260498,1183.416626 2955.218262,1194.334595 2953.081787,1205.757324 
	C2890.273926,1205.757324 2827.794922,1205.757324 2764.097168,1205.757324 
	C2784.163574,1111.259766 2804.150635,1017.136780 2824.199219,922.723938 
	C2886.870361,922.723938 2949.071045,922.723938 3012.845947,922.723938 
	C3010.499512,934.435120 3008.262939,945.598145 3005.904541,957.368958 
	C2975.582275,957.368958 2945.699463,957.368958 2915.077148,957.368958 
	C2910.087158,979.768433 2905.211914,1001.652771 2900.224121,1024.370972 
z"/>
<path fill="#FCFCFC" opacity="1.000000" stroke="none" 
	d="
M1289.781982,1145.698364 
	C1297.826782,1107.585327 1305.800415,1070.318115 1313.718872,1033.039062 
	C1321.361572,997.058289 1328.944092,961.064697 1336.586304,925.083740 
	C1336.713501,924.484985 1337.261475,923.975586 1337.961914,922.877930 
	C1400.077759,922.877930 1462.529175,922.877930 1525.978516,922.877930 
	C1523.627075,934.344238 1521.388062,945.262695 1518.855469,957.612549 
	C1509.080933,957.634155 1499.224609,957.664917 1489.368408,957.675354 
	C1479.042603,957.686279 1468.716919,957.677673 1458.391113,957.677673 
	C1448.432251,957.677673 1438.473267,957.677673 1427.907959,957.677673 
	C1421.734985,985.883728 1415.664917,1013.619690 1409.387329,1042.303833 
	C1435.185669,1042.303833 1460.068115,1042.303833 1485.659058,1042.303833 
	C1483.031128,1054.485718 1480.598267,1065.763306 1478.061279,1077.523438 
	C1452.714233,1077.523438 1427.832031,1077.523438 1401.914185,1077.523438 
	C1395.193604,1108.834473 1388.551147,1139.781372 1381.725830,1171.579956 
	C1412.178223,1171.579956 1441.715942,1171.579956 1472.464233,1171.579956 
	C1470.249023,1183.344360 1468.197754,1194.238037 1466.038696,1205.704346 
	C1403.388184,1205.704346 1340.976440,1205.704346 1277.183105,1205.704346 
	C1281.398560,1185.757324 1285.542603,1166.148193 1289.781982,1145.698364 
z"/>
<path fill="#FCFCFC" opacity="1.000000" stroke="none" 
	d="
M2568.136963,957.678528 
	C2561.841064,957.678528 2556.523682,957.678528 2550.213623,957.678528 
	C2551.476807,945.479248 2554.952393,934.328857 2557.915771,922.741699 
	C2637.567627,922.741699 2716.787598,922.741699 2797.197021,922.741699 
	C2794.661865,934.322266 2792.170898,945.700989 2789.588623,957.495728 
	C2765.628906,957.495728 2742.356445,957.495728 2717.829102,957.495728 
	C2700.194336,1040.316528 2682.621826,1122.845581 2664.955566,1205.815430 
	C2632.489990,1205.815430 2600.318359,1205.815430 2567.484131,1205.815430 
	C2585.026123,1123.262695 2602.455078,1041.241211 2620.211426,957.678528 
	C2602.716797,957.678528 2585.916260,957.678528 2568.136963,957.678528 
z"/>
<path fill="#FDFDFD" opacity="1.000000" stroke="none" 
	d="
M3046.222656,932.131226 
	C3047.071533,928.471191 3047.834717,925.649292 3048.626953,922.720032 
	C3080.937500,922.720032 3112.825928,922.720032 3146.120850,922.720032 
	C3128.640869,1004.526550 3111.301270,1085.675537 3093.667725,1168.201904 
	C3123.899414,1168.201904 3153.545166,1168.201904 3184.042725,1168.201904 
	C3181.361328,1181.557861 3178.967041,1193.484619 3176.496582,1205.790039 
	C3113.519043,1205.790039 3051.086914,1205.790039 2988.148193,1205.790039 
	C2993.595215,1179.898315 2998.860596,1154.621460 3004.235596,1129.367920 
	C3015.342041,1077.188232 3026.508789,1025.021362 3037.646729,972.848389 
	C3040.484131,959.557007 3043.307373,946.262512 3046.222656,932.131226 
z"/>
<path fill="#FDFDFD" opacity="1.000000" stroke="none" 
	d="
M2124.000488,1206.336914 
	C2110.385986,1206.336914 2097.770996,1206.336914 2083.968018,1206.336914 
	C2104.183838,1111.163452 2124.184814,1017.000366 2144.211426,922.715698 
	C2176.876709,922.715698 2208.785645,922.715698 2242.126709,922.715698 
	C2221.916992,1017.230896 2201.848389,1111.084839 2181.480957,1206.336914 
	C2162.716309,1206.336914 2143.858398,1206.336914 2124.000488,1206.336914 
z"/>
<path fill="#954010" opacity="1.000000" stroke="none" 
	d="
M273.938904,1128.020020 
	C274.996979,1128.677979 275.412445,1129.363647 275.837921,1130.650391 
	C273.043274,1132.290283 270.238617,1133.328979 266.593079,1134.679199 
	C267.297821,1129.095825 270.723877,1129.109253 273.938904,1128.020020 
z"/>
<path fill="#954010" opacity="1.000000" stroke="none" 
	d="
M215.542145,1442.662964 
	C216.745697,1443.253784 216.907120,1443.816284 216.504242,1444.862061 
	C213.340485,1445.979858 210.415085,1446.708130 207.489685,1447.436523 
	C207.260223,1446.744629 207.030777,1446.052856 206.801315,1445.361084 
	C208.915802,1443.238647 211.580261,1442.276611 215.542145,1442.662964 
z"/>
<path fill="#954010" opacity="1.000000" stroke="none" 
	d="
M856.897095,1445.675781 
	C855.941101,1444.837036 855.829102,1444.192749 856.080688,1443.050537 
	C859.363525,1442.975830 862.480164,1443.364746 866.488342,1443.864868 
	C863.442200,1448.957642 860.307190,1446.246826 856.897095,1445.675781 
z"/>
<path fill="#954010" opacity="1.000000" stroke="none" 
	d="
M797.939453,1131.462891 
	C797.429932,1130.353027 797.548828,1129.711548 797.952148,1128.657959 
	C800.877014,1129.134644 803.517395,1130.023560 807.449829,1131.347412 
	C803.150452,1135.163208 800.882202,1133.124146 797.939453,1131.462891 
z"/>
<path fill="#030303" opacity="1.000000" stroke="none" 
	d="
M1950.526367,1138.385986 
	C1944.118042,1148.530396 1938.131958,1158.051514 1931.945435,1167.440552 
	C1930.692383,1169.342285 1928.817139,1170.914673 1927.001099,1172.351318 
	C1913.155151,1183.305664 1898.303101,1178.527344 1894.536255,1161.298340 
	C1892.571777,1152.312500 1891.641113,1142.882080 1891.823120,1133.683716 
	C1892.554443,1096.703247 1899.046143,1060.625122 1910.028320,1025.305420 
	C1916.067017,1005.884888 1923.423096,987.126953 1935.218506,970.388977 
	C1939.816528,963.864380 1944.834595,957.710449 1952.021118,953.773621 
	C1965.589111,946.340820 1977.175903,950.903503 1979.466553,966.106140 
	C1981.479248,979.462830 1982.423096,993.305603 1981.328735,1006.729065 
	C1979.693481,1026.786011 1976.470459,1046.777222 1972.798096,1066.587891 
	C1968.257690,1091.080933 1960.880737,1114.837280 1950.526367,1138.385986 
z"/>
<path fill="#050505" opacity="1.000000" stroke="none" 
	d="
M1639.667236,1013.635742 
	C1643.932373,993.716431 1648.136475,974.638000 1652.564331,954.544373 
	C1661.186401,954.544373 1669.748779,954.000977 1678.199097,954.739746 
	C1683.625366,955.214111 1688.204956,958.615662 1689.936646,964.247375 
	C1691.483154,969.277405 1693.655273,974.534912 1693.454224,979.609009 
	C1692.634888,1000.299500 1689.426880,1020.530090 1677.287109,1038.158203 
	C1670.031006,1048.695068 1660.512573,1054.854858 1647.111084,1053.753906 
	C1642.175415,1053.348511 1637.178467,1053.688599 1630.753418,1053.688599 
	C1633.827271,1040.073853 1636.716797,1027.275269 1639.667236,1013.635742 
z"/>
<path fill="#040404" opacity="1.000000" stroke="none" 
	d="
M1131.799683,992.098511 
	C1134.944946,1028.553833 1138.090210,1065.009155 1141.274902,1101.920654 
	C1120.668457,1101.920654 1100.465698,1101.920654 1078.755249,1101.920654 
	C1094.476196,1065.051514 1110.988770,1029.176636 1128.251221,992.489868 
	C1130.098145,991.889038 1130.948975,991.993774 1131.799683,992.098511 
z"/>
<path fill="#555555" opacity="1.000000" stroke="none" 
	d="
M1131.927734,991.443237 
	C1130.948975,991.993774 1130.098145,991.889038 1128.611938,991.885559 
	C1128.599854,989.912415 1129.223145,987.838074 1129.846558,985.763733 
	C1130.378174,985.782471 1130.909790,985.801208 1131.441406,985.819946 
	C1131.646118,987.475952 1131.850952,989.131958 1131.927734,991.443237 
z"/>
</svg>